<svg width="300" height="150" viewBox="0 0 300 150" fill="none" xmlns="http://www.w3.org/2000/svg">
<g clip-path="url(#clip0_1124_4088)">
<path d="M91.6514 43.213H58.7389L57.7051 47.4234C56.8592 50.8632 53.7766 53.2879 50.2241 53.2879H34.623L39.5665 28.1947H89.6026C94.4521 28.1947 98.8317 25.2812 100.711 20.8077L109.433 0H45.1303L10.808 28.1947L0 83.0239H42.5739C49.0775 83.0239 54.1901 88.6252 53.5886 95.11L48.5136 149.469L91.6514 43.213Z" fill="white"/>
<path d="M98.2692 47.6305C98.8331 46.296 99.6977 45.2434 100.882 44.4539C102.066 43.6645 103.363 43.2698 104.773 43.2698L143.249 43.251L134.509 64.8105H117.272L119.396 59.4723H110.712L107.63 67.0661L144.302 67.0473L139.659 78.8138C139.151 80.1484 138.287 81.2198 137.084 82.028C135.881 82.8363 134.546 83.2498 133.099 83.2498L83.7959 83.2686L98.2692 47.6305Z" fill="white"/>
<path d="M166.595 31.3887C167.065 30.2233 167.836 29.3023 168.869 28.588C169.922 27.8737 171.087 27.5166 172.384 27.5166H185.448L179.095 43.2304H196.857L192.29 54.5647C191.688 56.0684 190.73 57.2526 189.433 58.136C188.117 59.0194 186.67 59.4518 185.091 59.4518H174.734C174.038 59.4518 173.418 59.6397 172.873 60.0344C172.309 60.4292 171.914 60.9179 171.651 61.5194L164.377 79.4136C163.907 80.579 163.136 81.5 162.103 82.2142C161.05 82.9285 159.903 83.2856 158.663 83.2856H145.543L166.595 31.3887Z" fill="white"/>
<path d="M209.958 31.3701C210.427 30.2047 211.198 29.2837 212.232 28.5694C213.284 27.8552 214.45 27.498 215.747 27.498H228.81L222.438 43.1931H240.201L235.633 54.5273C235.032 56.031 234.073 57.2152 232.776 58.0987C231.461 58.9821 230.013 59.4144 228.434 59.4144H218.078C217.382 59.4144 216.762 59.6024 216.217 59.9971C215.653 60.3918 215.258 60.8805 214.995 61.482L207.721 79.3762C207.251 80.5416 206.48 81.4626 205.446 82.1769C204.394 82.8912 203.247 83.2483 202.007 83.2483H188.887L209.958 31.3701Z" fill="white"/>
<path d="M247.682 47.6491C248.246 46.277 249.111 45.1868 250.295 44.3973C251.479 43.6079 252.795 43.2131 254.261 43.2131L299.485 43.1943L284.824 79.3587C284.354 80.5241 283.583 81.4451 282.512 82.1594C281.44 82.8736 280.275 83.2307 279.034 83.2307L233.228 83.2495L247.682 47.6491ZM257.005 67.0094H270.708C271.911 67.0094 272.738 66.4455 273.208 65.3365L275.651 59.4157H261.685C260.652 59.4157 259.918 59.9044 259.505 60.9006L257.005 67.0094Z" fill="white"/>
</g>
<defs>
<clipPath id="clip0_1124_4088">
<rect width="299.803" height="149.469" fill="white"/>
</clipPath>
</defs>
</svg>
